<svg id="_x33_0" enable-background="new 0 0 64 64" height="512" viewBox="0 0 64 64" width="512" xmlns="http://www.w3.org/2000/svg"><g><circle cx="49" cy="45" r="1"/><path d="m48.586 14-3.586-3.586-5.336 5.336c1.571.75 3.017 1.719 4.301 2.871z"/><path d="m33.918 19.008c.028 0 .054-.008.082-.008 2.757 0 5 2.243 5 5s-2.243 5-5 5h-5v3c0 .552.449 1 1 1h8c1.654 0 3 1.346 3 3s-1.346 3-3 3h-10c-.551 0-1 .448-1 1s.449 1 1 1h2c1.654 0 3 1.346 3 3v5h4c.203 0 .401.021.592.06 1.142-2.807 3.104-4.733 5.014-6.596 2.774-2.705 5.394-5.261 5.394-10.464 0-8.166-6.264-15.008-14.236-15.896.148.609.236 1.242.236 1.896 0 .34-.039.674-.082 1.008z"/><path d="m44.176 43.726c-.109.415-.176.841-.176 1.274 0 2.757 2.243 5 5 5s5-2.243 5-5-2.243-5-5-5c-.587 0-1.153.117-1.697.315-.942 1.258-2.036 2.346-3.127 3.411zm7.824 1.274c0 1.654-1.346 3-3 3s-3-1.346-3-3 1.346-3 3-3 3 1.346 3 3z"/><path d="m21.394 42.464c1.91 1.863 3.872 3.789 5.014 6.596.191-.039.389-.06.592-.06h4v-5c0-.552-.449-1-1-1h-2c-1.654 0-3-1.346-3-3s1.346-3 3-3h10c.551 0 1-.448 1-1s-.449-1-1-1h-8c-1.654 0-3-1.346-3-3v-3h-10.692c-.187.987-.308 1.989-.308 3 0 5.203 2.62 7.759 5.394 10.464z"/><path d="m48.245 24.341 5.341-5.341-3.586-3.586-4.623 4.623c1.151 1.286 2.119 2.732 2.868 4.304z"/><path d="m59.222 13.364c1.147-1.146 1.778-2.672 1.778-4.293 0-3.347-2.724-6.071-6.071-6.071-1.622 0-3.146.632-4.293 1.778l-1.222 1.222 8.586 8.586z"/><path d="m50.379 6.429h2.243v12.142h-2.243z" transform="matrix(.707 -.707 .707 .707 6.245 40.077)"/><path d="m32 61c1.477 0 2.794-.786 3.524-2h-7.048c.73 1.214 2.047 2 3.524 2z"/><path d="m37 55h-10c-.551 0-1 .448-1 1s.449 1 1 1h10c.551 0 1-.448 1-1s-.449-1-1-1z"/><path d="m13.414 52 3.586 3.586 6.979-6.979c-.842-1.504-1.983-2.738-3.214-3.957z"/><path d="m57.327 41.58c-.629-1.509-.299-3.191.827-4.318l.042-.042-1.416-1.416-.042.042c-1.127 1.128-2.812 1.458-4.287.84-1.501-.62-2.451-2.04-2.451-3.631v-.055h-.032c-.117 1.981-.582 3.609-1.259 5.014.098-.004.193-.014.291-.014 3.86 0 7 3.141 7 7s-3.14 7-7 7c-3.565 0-6.51-2.681-6.94-6.131-1.135 1.24-2.11 2.582-2.732 4.262.414.515.672 1.159.672 1.869 0 .294-.056.572-.135.841l1.355 1.355.042-.042c1.126-1.127 2.808-1.458 4.287-.841 1.501.622 2.451 2.041 2.451 3.632v.055h2v-.055c0-1.591.95-3.011 2.42-3.618 1.507-.632 3.19-.301 4.319.827l.042.042 1.416-1.416-.042-.042c-1.126-1.127-1.456-2.81-.84-4.286.619-1.502 2.039-2.452 3.63-2.452h.055v-2h-.055c-1.591 0-3.011-.95-3.618-2.42z"/><path d="m37 51h-10c-.551 0-1 .448-1 1s.449 1 1 1h10c.551 0 1-.448 1-1s-.449-1-1-1z"/><path d="m4.833 55.419 3.748 3.748 6.624-2.548-7.824-7.824z"/><path d="m7 27h27c1.654 0 3-1.346 3-3s-1.346-3-3-3-3 1.346-3 3h-2c0-1.956 1.14-3.636 2.78-4.457.134-.502.22-1.017.22-1.543 0-3.309-2.691-6-6-6-3.024 0-5.525 2.25-5.935 5.162 1.687.47 2.935 2.003 2.935 3.838h-2c0-1.103-.897-2-2-2s-2 .897-2 2h-2c0-1.877 1.304-3.444 3.05-3.874.281-2.571 1.787-4.775 3.919-6.025-1.404-2.511-4.044-4.101-6.969-4.101-4.411 0-8 3.589-8 8 0 .684.086 1.359.256 2.013 3.189.135 5.744 2.765 5.744 5.987h-2c0-2.206-1.794-4-4-4s-4 1.794-4 4 1.794 4 4 4z"/><path d="m12 50.586 7.337-7.337c-1.19-1.174-2.355-2.404-3.293-3.879l-7.63 7.63z"/><path d="m3.045 60.067c-.029.079-.045.162-.045.246 0 .464.501.809.934.641l2.604-1.002-2.491-2.491z"/></g></svg>